<svg id="Layer_1" data-name="Layer 1" xmlns="http://www.w3.org/2000/svg" viewBox="0 0 1024 406"><defs><style>.cls-1{fill:#2d99f1;}.cls-2,.cls-3{fill:#fff;}.cls-3{font-size:98.44px;font-family:MyriadPro-Semibold, Myriad Pro;font-weight:600;}.cls-4{letter-spacing:-0.01em;}</style></defs><title>Artboard 1ldpi</title><path class="cls-1" d="M293.13,203.14c-.1,2.54-.15,5.07-.31,7.61a100.82,100.82,0,0,1-1.56,11.72,104.75,104.75,0,0,1-2.6,10.73c-.51,1.73-1.13,3.42-1.7,5.13a96.05,96.05,0,0,1-5.12,12,102.46,102.46,0,0,1-5.49,9.66,104.43,104.43,0,0,1-7.48,10.31,109.15,109.15,0,0,1-14.15,14.29,111,111,0,0,1-11.64,8.57,109.13,109.13,0,0,1-13.7,7.45c-2.78,1.27-5.6,2.45-8.48,3.49a113.9,113.9,0,0,1-29.38,6.47c-1.66.12-3.33.2-5,.23-2.8,0-5.6,0-8.4,0a71.74,71.74,0,0,1-10.26-.74,112.62,112.62,0,0,1-13.17-2.43c-2.71-.68-5.41-1.4-8.06-2.29-2.91-1-5.8-2-8.61-3.17q-5.34-2.26-10.44-5a111.16,111.16,0,0,1-12.47-7.9,110.16,110.16,0,0,1-17.63-16.08,106.07,106.07,0,0,1-11.92-16.4A109.21,109.21,0,0,1,80,246a103.84,103.84,0,0,1-6.81-20.74,108,108,0,0,1-2-13.38c-.18-2.06-.25-4.11-.26-6.17s0-4.11,0-6.17a80.27,80.27,0,0,1,1.21-12.94,96.34,96.34,0,0,1,2.07-9.91c.73-2.71,1.51-5.4,2.44-8.06a110.35,110.35,0,0,1,5.09-12.16,104.82,104.82,0,0,1,5.86-10.37c1.73-2.72,3.6-5.35,5.58-7.91s4.09-5,6.29-7.39a111.24,111.24,0,0,1,32.92-24.27,104.73,104.73,0,0,1,12.6-5.16c2.73-.91,5.48-1.79,8.27-2.51a124.48,124.48,0,0,1,13.27-2.62,109.84,109.84,0,0,1,20.82-1,113.62,113.62,0,0,1,14.12,1.6,108.74,108.74,0,0,1,11.47,2.59q5.28,1.48,10.37,3.48a115.82,115.82,0,0,1,14.72,7q4.46,2.52,8.63,5.44a110.11,110.11,0,0,1,12.09,9.72,107.26,107.26,0,0,1,26.05,37.07,105.38,105.38,0,0,1,5.94,18.68,114.78,114.78,0,0,1,1.88,11.67C293,196.05,293.09,199.59,293.13,203.14ZM217,187.79c0-.5-.07-.79-.07-1.09,0-.48.07-1,.08-1.44a34.54,34.54,0,0,0-1.61-11,26.68,26.68,0,0,0-1.93-4.62,23.63,23.63,0,0,0-7.85-8.54,29.7,29.7,0,0,0-11.53-4.35,9.71,9.71,0,0,0-1.21-.08c-2.39,0-4.79-.08-7.18-.08h-45a8.2,8.2,0,0,0-1.48.11,26,26,0,0,0-20.15,17.36,40.1,40.1,0,0,0-2,9.37c-.08.87-.24,1.74-.27,2.61,0,1.62,0,3.24,0,4.86v35.21a29.26,29.26,0,0,0,.47,6.26,31.7,31.7,0,0,0,2.86,8.45,21.71,21.71,0,0,0,8.24,8.5,27.62,27.62,0,0,0,8.76,3.42,25.11,25.11,0,0,0,4.81.68H194a12.54,12.54,0,0,0,1.62-.06,24.85,24.85,0,0,0,11.27-4.17,21.17,21.17,0,0,0,7.37-8.91,26.36,26.36,0,0,0,2.36-9.39c0-1.14.15-2.27.24-3.41,0-.3,0-.62.46-.83a6.26,6.26,0,0,1,1.52.66c2.88,1.47,5.74,3,8.61,4.45l14.21,7.38c.92.47,1.84.94,2.78,1.37a1.56,1.56,0,0,0,.89.18,3.81,3.81,0,0,0,3.16-3.48c0-.52,0-1,0-1.58V178.87c0-.61,0-1.22,0-1.83a3.4,3.4,0,0,0-.87-2.42,2.65,2.65,0,0,0-3.68-.72l-.36.19-8.34,4.37c-3.93,2.06-7.86,4.13-11.8,6.18-1.79.93-3.58,1.86-5.38,2.77A9,9,0,0,1,217,187.79Z"/><path class="cls-2" d="M217,187.79a9,9,0,0,0,1.06-.38c1.8-.91,3.59-1.84,5.38-2.77,3.94-2,7.87-4.12,11.8-6.18l8.34-4.37.36-.19a2.65,2.65,0,0,1,3.68.72,3.4,3.4,0,0,1,.87,2.42c0,.61,0,1.22,0,1.83v56.75c0,.53,0,1.06,0,1.58a3.81,3.81,0,0,1-3.16,3.48,1.56,1.56,0,0,1-.89-.18c-.94-.43-1.86-.9-2.78-1.37l-14.21-7.38c-2.87-1.49-5.73-3-8.61-4.45a6.26,6.26,0,0,0-1.52-.66c-.45.21-.44.53-.46.83-.09,1.14-.19,2.27-.24,3.41a26.36,26.36,0,0,1-2.36,9.39,21.17,21.17,0,0,1-7.37,8.91,24.85,24.85,0,0,1-11.27,4.17,12.54,12.54,0,0,1-1.62.06H141.92a25.11,25.11,0,0,1-4.81-.68,27.62,27.62,0,0,1-8.76-3.42,21.71,21.71,0,0,1-8.24-8.5,31.7,31.7,0,0,1-2.86-8.45,29.26,29.26,0,0,1-.47-6.26V190.9c0-1.62,0-3.24,0-4.86,0-.87.19-1.74.27-2.61a40.1,40.1,0,0,1,2-9.37,26.1,26.1,0,0,1,3.93-7.45,26,26,0,0,1,16.22-9.91,8.2,8.2,0,0,1,1.48-.11h45c2.39,0,4.79,0,7.18.08a9.71,9.71,0,0,1,1.21.08,29.7,29.7,0,0,1,11.53,4.35,23.63,23.63,0,0,1,7.85,8.54,26.68,26.68,0,0,1,1.93,4.62,34.54,34.54,0,0,1,1.61,11c0,.48-.07,1-.08,1.44C216.93,187,217,187.29,217,187.79Zm-51.1,44.54c.11,0,.17,0,.2,0a4.23,4.23,0,0,1,.41.33,18.88,18.88,0,0,0,4,3.06,21.63,21.63,0,0,0,6.45,2.31,20.66,20.66,0,0,0,13.45-1.49,19.35,19.35,0,0,0,7.74-6.58,24.85,24.85,0,0,0,2.65-5,15.74,15.74,0,0,0,1.19-6.15c-.06-5,0-10,0-15a24.67,24.67,0,0,0-.83-6.23,36,36,0,0,0-5.27-11.59,30,30,0,0,0-7.66-7.71,35.21,35.21,0,0,0-9.65-4.68,30.49,30.49,0,0,0-10.38-1.6c-1.08.05-2.17,0-3.25,0a29.24,29.24,0,0,0-3.5.37,35.18,35.18,0,0,0-9.42,3.2,30.7,30.7,0,0,0-6.81,4.5c-1.17,1-2.25,2.14-3.31,3.27a29.09,29.09,0,0,0-3.43,4.56,39.41,39.41,0,0,0-4.41,10.12,14.59,14.59,0,0,0-.8,3.85c0,1.58,0,3.16-.05,4.73q-.07,5-.16,10c0,.22,0,.44,0,.66a27.59,27.59,0,0,0,0,3.28,20.91,20.91,0,0,0,3.22,9A18.65,18.65,0,0,0,148.83,238c1.55.3,3.14.38,4.7.6a8,8,0,0,0,3.34-.3,15.81,15.81,0,0,0,5.72-3.16c1-.78,1.88-1.64,2.82-2.46A4.15,4.15,0,0,1,165.9,232.33Z"/><path class="cls-1" d="M165.9,232.33a4.15,4.15,0,0,0-.49.35c-.94.82-1.84,1.68-2.82,2.46a15.81,15.81,0,0,1-5.72,3.16,8,8,0,0,1-3.34.3c-1.56-.22-3.15-.3-4.7-.6a18.65,18.65,0,0,1-12.54-8.43,20.91,20.91,0,0,1-3.22-9,27.59,27.59,0,0,1,0-3.28c0-.22,0-.44,0-.66q.09-5,.16-10c0-1.57,0-3.15.05-4.73a14.59,14.59,0,0,1,.8-3.85A39.41,39.41,0,0,1,138.49,188a29.09,29.09,0,0,1,3.43-4.56c1.06-1.13,2.14-2.24,3.31-3.27a30.7,30.7,0,0,1,6.81-4.5,35.18,35.18,0,0,1,9.42-3.2,29.24,29.24,0,0,1,3.5-.37c1.08-.06,2.17,0,3.25,0a30.49,30.49,0,0,1,10.38,1.6,35.21,35.21,0,0,1,9.65,4.68,30,30,0,0,1,7.66,7.71,36,36,0,0,1,5.27,11.59,24.67,24.67,0,0,1,.83,6.23c0,5,0,10,0,15a15.74,15.74,0,0,1-1.19,6.15,24.85,24.85,0,0,1-2.65,5,19.35,19.35,0,0,1-7.74,6.58A20.66,20.66,0,0,1,177,238.08a21.63,21.63,0,0,1-6.45-2.31,18.88,18.88,0,0,1-4-3.06,4.23,4.23,0,0,0-.41-.33S166,232.35,165.9,232.33Zm17.6-23.69h-.05c0-2,0-3.94,0-5.91a19,19,0,0,0-1.56-7.67,12.82,12.82,0,0,0-4.89-5.65,20.24,20.24,0,0,0-10.13-2.89,21.32,21.32,0,0,0-5.9.69,11.75,11.75,0,0,0-2.17.72,13.51,13.51,0,0,0-7.19,7.33,21.36,21.36,0,0,0-1.76,8.7c0,3.41,0,6.83,0,10.24,0,.39,0,.79,0,1.18a4.84,4.84,0,0,0,.68,2.25,2.9,2.9,0,0,0,1.86,1.42,6.39,6.39,0,0,0,3,0,3.34,3.34,0,0,0,2.84-3.23,13.78,13.78,0,0,0,0-1.44c0-3.72,0-7.44,0-11.16a10,10,0,0,1,.62-3.6,6.89,6.89,0,0,1,4.28-4.12,9.92,9.92,0,0,1,5.58-.43,7.42,7.42,0,0,1,6.15,6.2,15.93,15.93,0,0,1,.19,2.48c0,3.9,0,7.79,0,11.69,0,2.45.83,3.42,3.28,3.93a4.08,4.08,0,0,0,5-2.75,5.7,5.7,0,0,0,.16-1.43C183.51,213,183.5,210.83,183.5,208.64Z"/><path class="cls-2" d="M183.5,208.64c0,2.19,0,4.37,0,6.56a5.7,5.7,0,0,1-.16,1.43,4.08,4.08,0,0,1-5,2.75c-2.45-.51-3.27-1.48-3.28-3.93,0-3.9,0-7.79,0-11.69a15.93,15.93,0,0,0-.19-2.48,7.42,7.42,0,0,0-6.15-6.2,9.92,9.92,0,0,0-5.58.43,6.89,6.89,0,0,0-4.28,4.12,10,10,0,0,0-.62,3.6c0,3.72,0,7.44,0,11.16a13.78,13.78,0,0,1,0,1.44,3.34,3.34,0,0,1-2.84,3.23,6.39,6.39,0,0,1-3,0,2.9,2.9,0,0,1-1.86-1.42,4.84,4.84,0,0,1-.68-2.25c0-.39,0-.79,0-1.18,0-3.41,0-6.83,0-10.24a21.36,21.36,0,0,1,1.76-8.7,13.51,13.51,0,0,1,7.19-7.33,11.75,11.75,0,0,1,2.17-.72,21.32,21.32,0,0,1,5.9-.69A20.24,20.24,0,0,1,177,189.41a12.82,12.82,0,0,1,4.89,5.65,19,19,0,0,1,1.56,7.67c0,2,0,3.94,0,5.91Z"/><text class="cls-3" transform="matrix(1.72, 0, 0, 1, 310.97, 239.98)">Namas<tspan class="cls-4" x="291.07" y="0">t</tspan><tspan x="325.03" y="0">e</tspan></text></svg>